<?xml version="1.0" encoding="utf-8"?>
<!-- Generator: Adobe Illustrator 17.1.0, SVG Export Plug-In . SVG Version: 6.00 Build 0)  -->
<!DOCTYPE svg PUBLIC "-//W3C//DTD SVG 1.1//EN" "http://www.w3.org/Graphics/SVG/1.1/DTD/svg11.dtd">
<svg version="1.1" id="Layer_1" xmlns="http://www.w3.org/2000/svg" xmlns:xlink="http://www.w3.org/1999/xlink" x="0px" y="0px"
	 viewBox="0 0 53 37.6" enable-background="new 0 0 53 37.6" xml:space="preserve">
<path fill="#1DCA7F" d="M30.8,28c0.8,1,1.1,2.1,1.1,3.4c0,1.7-0.6,3.2-1.8,4.4c-1.2,1.2-2.6,1.8-4.3,1.8c-1.9,0-3.3-0.6-4.3-1.8
	l-9.3-11.6v6.4c0,1.8-0.3,3.2-1,4.3c-1.2,1.8-2.8,2.8-5.1,2.8c-2,0-3.6-0.7-4.7-2c-1-1.2-1.5-2.9-1.5-5V6.8c0-2,0.5-3.6,1.6-4.8
	c1.1-1.3,2.6-2,4.6-2C8,0,9.5,0.7,10.8,2c0.7,0.7,1.1,1.5,1.3,2.3c0.1,0.5,0.2,1.3,0.2,2.6v5.9l6.9-10c1.3-1.9,3-2.8,5.1-2.8
	c1.7,0,3.1,0.6,4.4,1.8c1.2,1.2,1.8,2.6,1.8,4.3c0,1.2-0.3,2.3-1,3.3l-6.2,9L30.8,28z M53,18.8c0-0.3-0.1-0.6-0.3-0.7l-5-5
	c-0.4-0.4-1-0.4-1.4,0s-0.4,1,0,1.4l3.3,3.3H35c-0.6,0-1,0.4-1,1s0.4,1,1,1h14.6l-3.3,3.3c-0.4,0.4-0.4,1,0,1.4
	c0.2,0.2,0.5,0.3,0.7,0.3s0.5-0.1,0.7-0.3l5-5C52.9,19.4,53,19.1,53,18.8z"/>
</svg>
